<svg width="202" height="58" viewBox="0 0 202 58" fill="none" xmlns="http://www.w3.org/2000/svg">
<rect x="0.130859" y="0.157715" width="201.869" height="57.0756" rx="17.5" fill="#080809"/>
<path d="M44.1166 39.2949C39.3096 39.2725 35.3333 31.3455 35.3333 27.3085C35.3333 20.714 41.4571 19.2703 43.8172 19.2703C44.8808 19.2703 46.0165 19.6077 47.0183 19.9063C47.7187 20.1146 48.4432 20.3296 48.8461 20.3296C49.0873 20.3296 49.6556 20.1467 50.1574 19.9862C51.2275 19.6421 52.5591 19.2144 54.1097 19.2144C54.1124 19.2144 54.1162 19.2144 54.1189 19.2144C55.2767 19.2144 58.7874 19.4196 60.898 21.9801L61.3924 22.5802L60.6808 23.014C59.6644 23.6335 57.8097 24.7637 57.8097 27.0025C57.8097 29.654 59.9101 30.6737 60.9192 31.1642C61.3647 31.3806 61.8257 31.6038 61.8257 32.092C61.8257 32.4108 58.6765 39.2553 54.1032 39.2553C52.9841 39.2553 52.1931 38.9836 51.4954 38.744C50.7894 38.5014 50.1804 38.2924 49.1741 38.2924C48.664 38.2924 48.019 38.4872 47.3361 38.694C46.4029 38.9754 45.3466 39.2949 44.1481 39.2949H44.1166Z" fill="white"/>
<path d="M54.5942 13.2036C54.7133 16.6728 51.642 19.0795 48.5744 18.9286C48.0689 16.1601 51.6416 13.2036 54.5942 13.2036Z" fill="white"/>
<path d="M78.9204 21.3572H81.04L78.1573 14.5081H75.6865L72.8038 21.3572H74.9234L75.3473 20.2809H78.4965L78.9204 21.3572ZM75.9287 18.8133L76.9219 16.2987L77.9151 18.8133H75.9287Z" fill="white"/>
<path d="M85.3296 16.465L84.07 19.5667L82.8103 16.465H80.7997L83.0404 21.3572H85.0995L87.3402 16.465H85.3296Z" fill="white"/>
<path d="M92.167 16.465V16.9249C91.7673 16.5531 91.1738 16.328 90.3623 16.328C88.7756 16.328 87.4675 17.4532 87.4675 18.9111C87.4675 20.369 88.7756 21.4942 90.3623 21.4942C91.1738 21.4942 91.7673 21.2691 92.167 20.8973V21.3572H93.9839V16.465H92.167ZM90.7257 20.1048C89.8899 20.1048 89.2843 19.6449 89.2843 18.9111C89.2843 18.1773 89.8899 17.7174 90.7257 17.7174C91.5614 17.7174 92.167 18.1773 92.167 18.9111C92.167 19.6449 91.5614 20.1048 90.7257 20.1048Z" fill="white"/>
<path d="M95.3168 21.3572H97.1336V14.2146H95.3168V21.3572Z" fill="white"/>
<path d="M99.3715 16.0345C99.965 16.0345 100.462 15.6333 100.462 15.1539C100.462 14.6745 99.965 14.2733 99.3715 14.2733C98.778 14.2733 98.2814 14.6745 98.2814 15.1539C98.2814 15.6333 98.778 16.0345 99.3715 16.0345ZM98.4631 21.3572H100.28V16.465H98.4631V21.3572Z" fill="white"/>
<path d="M105.231 16.328C104.419 16.328 103.826 16.5531 103.426 16.9249V14.5081H101.609V21.3572H103.426V20.8973C103.826 21.2691 104.419 21.4942 105.231 21.4942C106.818 21.4942 108.126 20.369 108.126 18.9111C108.126 17.4532 106.818 16.328 105.231 16.328ZM104.868 20.1048C104.032 20.1048 103.426 19.6449 103.426 18.9111C103.426 18.1773 104.032 17.7174 104.868 17.7174C105.703 17.7174 106.309 18.1773 106.309 18.9111C106.309 19.6449 105.703 20.1048 104.868 20.1048Z" fill="white"/>
<path d="M109.156 21.3572H110.973V14.2146H109.156V21.3572Z" fill="white"/>
<path d="M113.925 19.4982H118.225C118.273 19.3123 118.298 19.1166 118.298 18.9111C118.298 17.4337 116.99 16.328 115.221 16.328C113.307 16.328 111.999 17.4532 111.999 18.9111C111.999 20.369 113.283 21.4942 115.354 21.4942C116.505 21.4942 117.401 21.1517 117.995 20.4864L116.541 19.8113C116.299 20.0265 115.875 20.1831 115.379 20.1831C114.712 20.1831 114.155 20.007 113.925 19.4982ZM113.889 18.4023C114.058 17.9033 114.519 17.6294 115.209 17.6294C115.754 17.6294 116.299 17.8348 116.493 18.4023H113.889Z" fill="white"/>
<path d="M125.263 21.4942C127.044 21.4942 128.473 20.369 128.473 18.9111C128.473 17.4532 127.044 16.328 125.263 16.328C123.483 16.328 122.053 17.4532 122.053 18.9111C122.053 20.369 123.483 21.4942 125.263 21.4942ZM125.263 20.0657C124.476 20.0657 123.87 19.6058 123.87 18.9111C123.87 18.2164 124.476 17.7565 125.263 17.7565C126.05 17.7565 126.656 18.2164 126.656 18.9111C126.656 19.6058 126.05 20.0657 125.263 20.0657Z" fill="white"/>
<path d="M133.049 16.328C132.25 16.328 131.644 16.5629 131.317 16.9249V16.465H129.5V21.3572H131.317V18.6861C131.317 17.9914 131.778 17.6783 132.444 17.6783C133.025 17.6783 133.497 17.962 133.497 18.5687V21.3572H135.314V18.3534C135.314 17.0325 134.273 16.328 133.049 16.328Z" fill="white"/>
<path d="M143.139 17.874V16.465H141.891V15.0952L140.074 15.5355V16.465H139.105V17.874H140.074V19.6058C140.074 20.9756 140.765 21.5529 143.139 21.3572V20.0265C142.339 20.0657 141.891 20.0265 141.891 19.6058V17.874H143.139Z" fill="white"/>
<path d="M147.716 16.328C146.917 16.328 146.311 16.5629 145.984 16.9249V14.5081H144.168V21.3572H145.984V18.6861C145.984 17.9914 146.445 17.6783 147.111 17.6783C147.692 17.6783 148.165 17.962 148.165 18.5687V21.3572H149.981V18.3534C149.981 17.0325 148.94 16.328 147.716 16.328Z" fill="white"/>
<path d="M152.852 19.4982H157.152C157.2 19.3123 157.225 19.1166 157.225 18.9111C157.225 17.4337 155.916 16.328 154.148 16.328C152.234 16.328 150.926 17.4532 150.926 18.9111C150.926 20.369 152.21 21.4942 154.281 21.4942C155.432 21.4942 156.328 21.1517 156.922 20.4864L155.468 19.8113C155.226 20.0265 154.802 20.1831 154.305 20.1831C153.639 20.1831 153.082 20.007 152.852 19.4982ZM152.816 18.4023C152.985 17.9033 153.446 17.6294 154.136 17.6294C154.681 17.6294 155.226 17.8348 155.42 18.4023H152.816Z" fill="white"/>
<path d="M82.9982 39.2953H86.5309L81.7264 27.8801H77.6083L72.8038 39.2953H76.3365L77.043 37.5014H82.2916L82.9982 39.2953ZM78.012 35.0554L79.6673 30.8644L81.3227 35.0554H78.012Z" fill="white"/>
<path d="M93.6707 30.9133C92.3182 30.9133 91.3291 31.2884 90.6629 31.908V31.1416H87.6348V42.5567H90.6629V38.5288C91.3291 39.1485 92.3182 39.5236 93.6707 39.5236C96.3152 39.5236 98.4954 37.6482 98.4954 35.2184C98.4954 32.7886 96.3152 30.9133 93.6707 30.9133ZM93.0651 37.2079C91.6722 37.2079 90.6629 36.4415 90.6629 35.2184C90.6629 33.9954 91.6722 33.2289 93.0651 33.2289C94.458 33.2289 95.4674 33.9954 95.4674 35.2184C95.4674 36.4415 94.458 37.2079 93.0651 37.2079Z" fill="white"/>
<path d="M106.248 30.9133C104.896 30.9133 103.906 31.2884 103.24 31.908V31.1416H100.212V42.5567H103.24V38.5288C103.906 39.1485 104.896 39.5236 106.248 39.5236C108.893 39.5236 111.073 37.6482 111.073 35.2184C111.073 32.7886 108.893 30.9133 106.248 30.9133ZM105.643 37.2079C104.25 37.2079 103.24 36.4415 103.24 35.2184C103.24 33.9954 104.25 33.2289 105.643 33.2289C107.035 33.2289 108.045 33.9954 108.045 35.2184C108.045 36.4415 107.035 37.2079 105.643 37.2079Z" fill="white"/>
<path d="M112.79 39.2953H115.818V27.3909H112.79V39.2953Z" fill="white"/>
<path d="M120.739 36.1969H127.905C127.986 35.887 128.026 35.5609 128.026 35.2184C128.026 32.756 125.846 30.9133 122.899 30.9133C119.709 30.9133 117.529 32.7886 117.529 35.2184C117.529 37.6482 119.669 39.5236 123.121 39.5236C125.038 39.5236 126.532 38.9528 127.521 37.8439L125.099 36.7187C124.695 37.0775 123.989 37.3384 123.161 37.3384C122.051 37.3384 121.122 37.0448 120.739 36.1969ZM120.678 34.3704C120.961 33.5388 121.728 33.0822 122.878 33.0822C123.787 33.0822 124.695 33.4246 125.018 34.3704H120.678Z" fill="white"/>
<path d="M139.837 39.5236C142.905 39.5236 145.086 38.219 145.086 36.0175C145.086 33.604 142.683 33.0006 140.543 32.4788C138.343 31.9407 138 31.5819 138 31.0601C138 30.6035 138.505 30.1958 139.514 30.1958C140.806 30.1958 141.472 30.7013 141.957 31.5167L144.682 30.2284C143.652 28.5487 141.835 27.6518 139.514 27.6518C137.071 27.6518 134.77 28.9238 134.77 31.1253C134.77 33.3105 136.829 34.1258 138.929 34.5987C141.048 35.0717 141.856 35.3489 141.856 36.0501C141.856 36.4904 141.472 36.9796 139.938 36.9796C138.343 36.9796 137.475 36.3436 136.97 35.3978L134.185 36.7024C134.972 38.382 136.869 39.5236 139.837 39.5236Z" fill="white"/>
<path d="M152.218 33.4898V31.1416H150.139V28.8586L147.111 29.5924V31.1416H145.496V33.4898H147.111V36.3762C147.111 38.6593 148.261 39.6214 152.218 39.2953V37.0775C150.885 37.1427 150.139 37.0775 150.139 36.3762V33.4898H152.218Z" fill="white"/>
<path d="M158.58 39.5236C161.548 39.5236 163.93 37.6482 163.93 35.2184C163.93 32.7886 161.548 30.9133 158.58 30.9133C155.613 30.9133 153.23 32.7886 153.23 35.2184C153.23 37.6482 155.613 39.5236 158.58 39.5236ZM158.58 37.1427C157.268 37.1427 156.259 36.3762 156.259 35.2184C156.259 34.0606 157.268 33.2942 158.58 33.2942C159.892 33.2942 160.902 34.0606 160.902 35.2184C160.902 36.3762 159.892 37.1427 158.58 37.1427Z" fill="white"/>
<path d="M168.67 32.5929V31.1416H165.642V39.2953H168.67V35.6098C168.67 33.9954 170.447 33.5877 171.698 33.7508V30.9785C170.427 30.9785 169.074 31.5004 168.67 32.5929Z" fill="white"/>
<path d="M175.523 36.1969H182.69C182.77 35.887 182.811 35.5609 182.811 35.2184C182.811 32.756 180.63 30.9133 177.683 30.9133C174.494 30.9133 172.313 32.7886 172.313 35.2184C172.313 37.6482 174.453 39.5236 177.905 39.5236C179.823 39.5236 181.317 38.9528 182.306 37.8439L179.884 36.7187C179.48 37.0775 178.773 37.3384 177.946 37.3384C176.835 37.3384 175.907 37.0448 175.523 36.1969ZM175.463 34.3704C175.745 33.5388 176.512 33.0822 177.663 33.0822C178.571 33.0822 179.48 33.4246 179.803 34.3704H175.463Z" fill="white"/>
</svg>
