<svg width="216" height="58" viewBox="0 0 216 58" fill="none" xmlns="http://www.w3.org/2000/svg">
<rect y="0.157715" width="216" height="57.0756" rx="17.5" fill="#080809"/>
<g clip-path="url(#clip0_2_31)">
<path d="M57.5476 27.883L37.2728 43.6542C36.3234 43.13 35.7597 42.2582 35.7697 41.3293V14.4367C35.7597 13.5078 36.3234 12.636 37.2728 12.1118L57.5476 27.883Z" fill="#2196F3"/>
<path d="M64.642 22.3741L57.5476 27.8829L37.2729 12.1118C37.3492 12.0639 37.4288 12.0194 37.5111 11.9785C38.5827 11.4538 39.9211 11.4369 41.0125 11.9341L64.642 22.3741Z" fill="#4CAF50"/>
<path d="M73.2396 27.8828C73.2528 28.9315 72.5474 29.9001 71.4064 30.4003L64.642 33.3916L57.5477 27.8828L64.642 22.374L71.4064 25.3653C72.5474 25.8656 73.2528 26.8342 73.2396 27.8828Z" fill="#F0BB1F"/>
<path d="M64.642 33.3919L41.0125 43.832C39.9187 44.3214 38.5853 44.3045 37.5111 43.7875C37.4288 43.7466 37.3492 43.7021 37.2729 43.6542L57.5477 27.8831L64.642 33.3919Z" fill="#F15A2B"/>
</g>
<path d="M96.9456 19.5308H91.2772V21.3572H94.2971C93.8934 22.2313 92.9083 22.7662 91.4064 22.7662C89.21 22.7662 87.8535 21.6312 87.8535 20.0787C87.8535 18.4741 89.2746 17.3391 91.1803 17.3391C92.4561 17.3391 93.4735 17.8088 93.9418 18.4089L96.1382 17.3913C95.1853 16.165 93.3604 15.304 91.1964 15.304C87.8696 15.304 85.2695 17.4174 85.2695 20.0657C85.2695 22.6879 87.8212 24.8013 91.3741 24.8013C94.5394 24.8013 96.9456 23.1054 96.9456 20.3136V19.5308Z" fill="white"/>
<path d="M100.179 22.6096V20.9919H104.216V19.009H100.179V17.4957H104.62V15.4866H97.5949V24.6187H104.701V22.6096H100.179Z" fill="white"/>
<path d="M112.941 15.4866H104.544V17.4957H107.451V24.6187H110.034V17.4957H112.941V15.4866Z" fill="white"/>
<path d="M116.495 15.4866V24.6187H119.079V15.4866H116.495Z" fill="white"/>
<path d="M127.804 15.4866H119.406V17.4957H122.313V24.6187H124.897V17.4957H127.804V15.4866Z" fill="white"/>
<path d="M136.751 24.8013C139.998 24.8013 142.63 22.7401 142.63 20.0526C142.63 17.3652 139.998 15.304 136.751 15.304C133.505 15.304 130.873 17.3652 130.873 20.0526C130.873 22.7401 133.505 24.8013 136.751 24.8013ZM136.751 22.7662C134.91 22.7662 133.457 21.6834 133.457 20.0526C133.457 18.4219 134.91 17.3391 136.751 17.3391C138.593 17.3391 140.046 18.4219 140.046 20.0526C140.046 21.6834 138.593 22.7662 136.751 22.7662Z" fill="white"/>
<path d="M149.576 15.4866V20.444L145.215 15.4866H143.277V24.6187H145.861V19.6613L150.222 24.6187H152.16V15.4866H149.576Z" fill="white"/>
<path d="M96.9456 35.0423V35.3946C96.9456 36.5339 96.445 37.495 95.4437 38.2777C94.4425 39.0518 93.1236 39.4388 91.4871 39.4388C89.7645 39.4388 88.3433 38.9865 87.2236 38.082C86.1039 37.1688 85.5441 36.0512 85.5441 34.7292C85.5441 33.4073 86.0985 32.294 87.2075 31.3895C88.3164 30.4763 89.7214 30.0197 91.4225 30.0197C92.4561 30.0197 93.4035 30.2197 94.2648 30.6198C95.1369 31.0199 95.8098 31.5547 96.2835 32.2244L95.5245 32.5897C95.1477 32.0157 94.5878 31.5547 93.8449 31.2069C93.1128 30.859 92.3053 30.685 91.4225 30.685C89.9583 30.685 88.7524 31.0764 87.805 31.8591C86.8683 32.6332 86.4 33.5899 86.4 34.7292C86.4 35.8686 86.8737 36.8296 87.8212 37.6124C88.7686 38.3864 89.9906 38.7734 91.4871 38.7734C92.8114 38.7734 93.8826 38.4821 94.7009 37.8994C95.5191 37.3167 95.9767 36.5817 96.0736 35.6946H91.2772V35.0423H96.9456Z" fill="white"/>
<path d="M108.409 38.069C107.279 38.9822 105.9 39.4388 104.275 39.4388C102.649 39.4388 101.271 38.9822 100.14 38.069C99.01 37.1471 98.4448 36.0338 98.4448 34.7292C98.4448 33.4246 99.01 32.3158 100.14 31.4025C101.271 30.4806 102.649 30.0197 104.275 30.0197C105.9 30.0197 107.279 30.4806 108.409 31.4025C109.54 32.3158 110.105 33.4246 110.105 34.7292C110.105 36.0338 109.54 37.1471 108.409 38.069ZM100.738 37.5993C101.707 38.3821 102.886 38.7734 104.275 38.7734C105.664 38.7734 106.837 38.3821 107.795 37.5993C108.764 36.8079 109.249 35.8512 109.249 34.7292C109.249 33.6073 108.764 32.6549 107.795 31.8722C106.837 31.0807 105.664 30.685 104.275 30.685C102.886 30.685 101.707 31.0807 100.738 31.8722C99.7798 32.6549 99.3007 33.6073 99.3007 34.7292C99.3007 35.8512 99.7798 36.8079 100.738 37.5993Z" fill="white"/>
<path d="M121.594 38.069C120.463 38.9822 119.085 39.4388 117.459 39.4388C115.834 39.4388 114.456 38.9822 113.325 38.069C112.195 37.1471 111.629 36.0338 111.629 34.7292C111.629 33.4246 112.195 32.3158 113.325 31.4025C114.456 30.4806 115.834 30.0197 117.459 30.0197C119.085 30.0197 120.463 30.4806 121.594 31.4025C122.724 32.3158 123.289 33.4246 123.289 34.7292C123.289 36.0338 122.724 37.1471 121.594 38.069ZM113.923 37.5993C114.892 38.3821 116.07 38.7734 117.459 38.7734C118.848 38.7734 120.022 38.3821 120.98 37.5993C121.949 36.8079 122.433 35.8512 122.433 34.7292C122.433 33.6073 121.949 32.6549 120.98 31.8722C120.022 31.0807 118.848 30.685 117.459 30.685C116.07 30.685 114.892 31.0807 113.923 31.8722C112.964 32.6549 112.485 33.6073 112.485 34.7292C112.485 35.8512 112.964 36.8079 113.923 37.5993Z" fill="white"/>
<path d="M136.216 35.0423V35.3946C136.216 36.5339 135.715 37.495 134.714 38.2777C133.712 39.0518 132.393 39.4388 130.757 39.4388C129.034 39.4388 127.613 38.9865 126.493 38.082C125.374 37.1688 124.814 36.0512 124.814 34.7292C124.814 33.4073 125.368 32.294 126.477 31.3895C127.586 30.4763 128.991 30.0197 130.692 30.0197C131.726 30.0197 132.673 30.2197 133.535 30.6198C134.407 31.0199 135.08 31.5547 135.553 32.2244L134.794 32.5897C134.418 32.0157 133.858 31.5547 133.115 31.2069C132.383 30.859 131.575 30.685 130.692 30.685C129.228 30.685 128.022 31.0764 127.075 31.8591C126.138 32.6332 125.67 33.5899 125.67 34.7292C125.67 35.8686 126.144 36.8296 127.091 37.6124C128.038 38.3864 129.26 38.7734 130.757 38.7734C132.081 38.7734 133.152 38.4821 133.971 37.8994C134.789 37.3167 135.247 36.5817 135.343 35.6946H130.547V35.0423H136.216Z" fill="white"/>
<path d="M139.217 38.643H144.546V39.2953H138.361V30.1632H139.217V38.643Z" fill="white"/>
<path d="M147.181 38.643H152.833V39.2953H146.325V30.1632H152.752V30.8155H147.181V34.3639H152.349V35.0162H147.181V38.643Z" fill="white"/>
<path d="M163.085 30.1632C164.097 30.1632 164.937 30.4328 165.604 30.972C166.272 31.5113 166.606 32.1853 166.606 32.9941C166.606 33.803 166.272 34.477 165.604 35.0162C164.937 35.5468 164.097 35.812 163.085 35.812H160.097V39.2953H159.241V30.1632H163.085ZM163.085 35.1597C163.86 35.1597 164.495 34.9554 164.991 34.5466C165.497 34.1378 165.75 33.6203 165.75 32.9941C165.75 32.3592 165.497 31.8374 164.991 31.4286C164.495 31.0199 163.86 30.8155 163.085 30.8155H160.097V35.1597H163.085Z" fill="white"/>
<path d="M169.576 38.643H174.905V39.2953H168.72V30.1632H169.576V38.643Z" fill="white"/>
<path d="M184.606 39.2953L183.508 36.9731H177.839L176.741 39.2953H175.837L180.23 30.1632H181.134L185.51 39.2953H184.606ZM178.162 36.3208H183.201L180.682 31.0112L178.162 36.3208Z" fill="white"/>
<path d="M193.554 30.1632L189.436 35.5381V39.2953H188.58V35.5381L184.462 30.1632H185.431L189.016 34.8727L192.585 30.1632H193.554Z" fill="white"/>
<defs>
<clipPath id="clip0_2_31">
<rect width="40.3738" height="32.6146" fill="white" transform="translate(34.3177 11.5728)"/>
</clipPath>
</defs>
</svg>
