<svg width="33" height="27" viewBox="0 0 33 27" xmlns="http://www.w3.org/2000/svg">
<path d="M28.0818 0.447266H5.24532C2.6368 0.447266 0.514015 2.16208 0.514015 4.26929V22.7169C0.514015 24.8247 2.6368 26.539 5.24532 26.539H28.0818C30.6909 26.539 32.8131 24.8247 32.8131 22.7169V4.26929C32.8131 2.16208 30.6909 0.447266 28.0818 0.447266ZM30.9206 22.7169C30.9206 23.9813 29.6469 25.0102 28.0818 25.0102H5.24532C3.68021 25.0102 2.40654 23.9813 2.40654 22.7169V4.26929C2.40654 3.00497 3.68021 1.97608 5.24532 1.97608H28.0818C29.6469 1.97608 30.9206 3.00497 30.9206 4.26929V22.7169Z"/>
<path d="M27.0724 3.55591C26.029 3.55591 25.1799 4.24183 25.1799 5.08472C25.1799 5.9276 26.029 6.61353 27.0724 6.61353C28.1158 6.61353 28.9649 5.9276 28.9649 5.08472C28.9649 4.24183 28.1158 3.55591 27.0724 3.55591Z"/>
<path d="M16.6635 6.61353C11.9676 6.61353 8.14719 9.69969 8.14719 13.4932C8.14719 17.2867 11.9676 20.3728 16.6635 20.3728C21.3595 20.3728 25.1799 17.2867 25.1799 13.4932C25.1799 9.69969 21.3595 6.61353 16.6635 6.61353ZM16.6635 18.844C13.011 18.844 10.0397 16.4438 10.0397 13.4932C10.0397 10.5426 13.011 8.14234 16.6635 8.14234C20.3161 8.14234 23.2874 10.5426 23.2874 13.4932C23.2874 16.4438 20.3161 18.844 16.6635 18.844Z"/>
</svg>
