<svg id="logo" xmlns="http://www.w3.org/2000/svg" viewBox="0 0 81 24" fill="currentColor"><path d="M10.15 1.76h3.87L23.26 23h-5.28l-1.83-4.5H7.9L6.13 23H.97l9.18-21.24Zm1.8 6.18-2.58 6.6h5.19l-2.61-6.6ZM24.89.32h4.5V23h-4.5V.32ZM32.68 8.42h4.5V23h-4.5V8.42Zm-.36-4.59c0-.72.25-1.33.75-1.83a2.54 2.54 0 0 1 1.86-.78c.72 0 1.33.26 1.83.78.52.5.78 1.11.78 1.83s-.26 1.34-.78 1.86c-.5.5-1.11.75-1.83.75a2.6 2.6 0 0 1-1.86-.75 2.6 2.6 0 0 1-.75-1.86ZM38.88 8.42h4.86l3.7 9.9h.05l3.42-9.9h4.53L49.68 23h-4.77L38.88 8.42ZM57.14 8.42h4.5V23h-4.5V8.42Zm-.36-4.59c0-.72.25-1.33.75-1.83a2.54 2.54 0 0 1 1.86-.78c.72 0 1.33.26 1.83.78.52.5.78 1.11.78 1.83s-.26 1.34-.78 1.86c-.5.5-1.1.75-1.83.75a2.6 2.6 0 0 1-1.86-.75 2.6 2.6 0 0 1-.75-1.86ZM64.34 15.71c0-1.16.2-2.21.63-3.15a7.2 7.2 0 0 1 1.7-2.4c.75-.68 1.6-1.2 2.59-1.56 1-.36 2.06-.54 3.18-.54s2.17.18 3.15.54c1 .36 1.86.88 2.58 1.56a7 7 0 0 1 1.74 2.4c.42.94.63 1.99.63 3.15s-.21 2.21-.63 3.15a7.31 7.31 0 0 1-4.32 3.96c-.98.36-2.03.54-3.15.54a9.32 9.32 0 0 1-3.18-.54 7.95 7.95 0 0 1-2.58-1.53 7.52 7.52 0 0 1-2.34-5.58Zm4.5 0c0 1.1.3 1.99.93 2.67a3.49 3.49 0 0 0 2.67 1.02c1.14 0 2.02-.34 2.64-1.02.64-.68.96-1.57.96-2.67 0-1.1-.32-1.99-.96-2.67-.62-.68-1.5-1.02-2.64-1.02-1.14 0-2.03.34-2.67 1.02a3.8 3.8 0 0 0-.93 2.67Z"/></svg>