<svg width="34" height="22" viewBox="0 0 34 22" fill="none" xmlns="http://www.w3.org/2000/svg">
<path d="M33.0654 3.21868C31.8643 3.6443 30.5844 3.92642 29.2501 4.0634C30.6228 3.40132 31.6705 2.36092 32.1631 1.10688C30.8832 1.7233 29.4701 2.15871 27.9642 2.40168C26.7489 1.35639 25.0169 0.708984 23.1274 0.708984C19.4615 0.708984 16.5101 3.11268 16.5101 6.05942C16.5101 6.48341 16.5545 6.89109 16.6636 7.2792C11.1586 7.06232 6.28748 4.93095 3.01518 1.68416C2.44389 2.48485 2.10879 3.40132 2.10879 4.38792C2.10879 6.24043 3.28972 7.88257 5.05002 8.83329C3.98617 8.81698 2.94251 8.56748 2.05832 8.17447C2.05832 8.19078 2.05832 8.21198 2.05832 8.23318C2.05832 10.8326 4.35357 12.9917 7.36344 13.489C6.82445 13.6081 6.23701 13.6651 5.62737 13.6651C5.20344 13.6651 4.77548 13.6456 4.37376 13.5738C5.2317 15.6921 7.66625 17.2495 10.561 17.3C8.30819 18.7237 5.4477 19.5814 2.35103 19.5814C1.808 19.5814 1.28718 19.5619 0.766357 19.5081C3.69952 21.0361 7.1757 21.9085 10.9244 21.9085C23.1092 21.9085 29.7709 13.7548 29.7709 6.68725C29.7709 6.45079 29.7608 6.22249 29.7467 5.99582C31.0609 5.24242 32.1651 4.30149 33.0654 3.21868Z" fill="#080809"/>
</svg>
